<?xml version="1.0" encoding="utf-8"?>
<!-- Generator: Adobe Illustrator 19.0.0, SVG Export Plug-In . SVG Version: 6.00 Build 0)  -->
<svg version="1.1" id="Layer_1" xmlns="http://www.w3.org/2000/svg" xmlns:xlink="http://www.w3.org/1999/xlink" x="0px" y="0px"
	 viewBox="0 0 230 104" style="enable-background:new 0 0 230 104;" xml:space="preserve">
<style type="text/css">
	.st0{fill:#FFFFFF;}
</style>
<g id="XMLID_74_">
	<path id="XMLID_133_" class="st0" d="M134.7,39.8l-3.1,9.4h-1.4l-2.6-7.5l-2.6,7.5h-1.4l-3.1-9.4h1.4l2.5,7.7l2.6-7.7h1.2l2.6,7.7
		l2.6-7.7H134.7z"/>
	<path id="XMLID_130_" class="st0" d="M142.1,46.1h-5.8c0.1,0.6,0.4,1.1,0.8,1.5c0.5,0.4,1.1,0.6,1.8,0.6c0.9,0,1.5-0.3,2.1-0.9
		l0.7,0.8c-0.3,0.4-0.7,0.7-1.2,0.9c-0.5,0.2-1,0.3-1.6,0.3c-0.8,0-1.4-0.2-2-0.5c-0.6-0.3-1-0.7-1.4-1.3c-0.3-0.6-0.5-1.2-0.5-1.9
		c0-0.7,0.2-1.3,0.5-1.9c0.3-0.6,0.7-1,1.3-1.3c0.5-0.3,1.2-0.5,1.8-0.5c0.7,0,1.3,0.2,1.8,0.5c0.5,0.3,1,0.7,1.3,1.3
		c0.3,0.6,0.5,1.2,0.5,1.9C142.1,45.8,142.1,45.9,142.1,46.1z M137,43.7c-0.4,0.4-0.7,0.9-0.7,1.5h4.6c-0.1-0.6-0.3-1.1-0.7-1.5
		c-0.4-0.4-0.9-0.6-1.6-0.6C137.9,43.1,137.4,43.3,137,43.7z"/>
	<path id="XMLID_127_" class="st0" d="M147.7,39.8h4c1,0,1.9,0.2,2.6,0.6c0.8,0.4,1.4,0.9,1.8,1.7c0.4,0.7,0.6,1.5,0.6,2.5
		c0,0.9-0.2,1.7-0.6,2.5c-0.4,0.7-1,1.3-1.8,1.7c-0.8,0.4-1.7,0.6-2.6,0.6h-4V39.8z M151.6,48c0.8,0,1.4-0.1,2-0.4
		c0.6-0.3,1-0.7,1.3-1.2c0.3-0.5,0.5-1.1,0.5-1.8c0-0.7-0.2-1.3-0.5-1.8c-0.3-0.5-0.8-0.9-1.3-1.2c-0.6-0.3-1.2-0.4-2-0.4H149V48
		H151.6z"/>
	<path id="XMLID_124_" class="st0" d="M165,46.1h-5.8c0.1,0.6,0.4,1.1,0.8,1.5c0.5,0.4,1.1,0.6,1.8,0.6c0.9,0,1.5-0.3,2.1-0.9
		l0.7,0.8c-0.3,0.4-0.7,0.7-1.2,0.9c-0.5,0.2-1,0.3-1.6,0.3c-0.8,0-1.4-0.2-2-0.5c-0.6-0.3-1-0.7-1.4-1.3c-0.3-0.6-0.5-1.2-0.5-1.9
		c0-0.7,0.2-1.3,0.5-1.9c0.3-0.6,0.7-1,1.3-1.3c0.5-0.3,1.2-0.5,1.8-0.5c0.7,0,1.3,0.2,1.8,0.5c0.5,0.3,1,0.7,1.3,1.3
		c0.3,0.6,0.5,1.2,0.5,1.9C165,45.8,165,45.9,165,46.1z M160,43.7c-0.4,0.4-0.7,0.9-0.7,1.5h4.6c-0.1-0.6-0.3-1.1-0.7-1.5
		c-0.4-0.4-0.9-0.6-1.6-0.6C160.9,43.1,160.4,43.3,160,43.7z"/>
	<path id="XMLID_122_" class="st0" d="M166.8,39.2h1.3v10h-1.3V39.2z"/>
	<path id="XMLID_119_" class="st0" d="M170.6,40.5c-0.2-0.2-0.2-0.4-0.2-0.6s0.1-0.4,0.2-0.6c0.2-0.2,0.4-0.2,0.6-0.2
		s0.5,0.1,0.6,0.2c0.2,0.2,0.2,0.4,0.2,0.6c0,0.2-0.1,0.4-0.2,0.6c-0.2,0.2-0.4,0.2-0.6,0.2S170.8,40.6,170.6,40.5z M170.6,42.1h1.3
		v7.1h-1.3V42.1z"/>
	<path id="XMLID_117_" class="st0" d="M180.6,42.1l-3.1,7.1h-1.3l-3.1-7.1h1.3l2.4,5.7l2.5-5.7H180.6z"/>
	<path id="XMLID_114_" class="st0" d="M188.1,46.1h-5.8c0.1,0.6,0.4,1.1,0.8,1.5c0.5,0.4,1.1,0.6,1.8,0.6c0.9,0,1.5-0.3,2.1-0.9
		l0.7,0.8c-0.3,0.4-0.7,0.7-1.2,0.9c-0.5,0.2-1,0.3-1.6,0.3c-0.8,0-1.4-0.2-2-0.5c-0.6-0.3-1-0.7-1.4-1.3c-0.3-0.6-0.5-1.2-0.5-1.9
		c0-0.7,0.2-1.3,0.5-1.9c0.3-0.6,0.7-1,1.3-1.3c0.5-0.3,1.2-0.5,1.8-0.5c0.7,0,1.3,0.2,1.8,0.5c0.5,0.3,1,0.7,1.3,1.3
		c0.3,0.6,0.5,1.2,0.5,1.9C188.1,45.8,188.1,45.9,188.1,46.1z M183,43.7c-0.4,0.4-0.7,0.9-0.7,1.5h4.6c-0.1-0.6-0.3-1.1-0.7-1.5
		c-0.4-0.4-0.9-0.6-1.6-0.6C183.9,43.1,183.4,43.3,183,43.7z"/>
	<path id="XMLID_112_" class="st0" d="M192.1,42.3c0.4-0.2,1-0.3,1.6-0.3v1.3c-0.1,0-0.2,0-0.3,0c-0.7,0-1.2,0.2-1.6,0.6
		c-0.4,0.4-0.6,1-0.6,1.8v3.6h-1.3v-7.1h1.2v1.2C191.3,42.9,191.7,42.6,192.1,42.3z"/>
	<path id="XMLID_109_" class="st0" d="M127.1,59.3l-0.3,2.6h1.9v1h-2l-0.3,2.4h-1l0.3-2.4h-2.5l-0.3,2.4h-1l0.3-2.4h-1.9v-1h2
		l0.3-2.6h-1.9v-1h2l0.3-2.4h1l-0.3,2.4h2.5l0.3-2.4h1l-0.3,2.4h1.9v1H127.1z M126.2,59.3h-2.5l-0.3,2.6h2.5L126.2,59.3z"/>
	<path id="XMLID_106_" class="st0" d="M130.9,55.9h4c1,0,1.9,0.2,2.6,0.6c0.8,0.4,1.4,0.9,1.8,1.7c0.4,0.7,0.6,1.5,0.6,2.5
		c0,0.9-0.2,1.7-0.6,2.5c-0.4,0.7-1,1.3-1.8,1.7c-0.8,0.4-1.7,0.6-2.6,0.6h-4V55.9z M134.8,64.2c0.8,0,1.4-0.1,2-0.4
		c0.6-0.3,1-0.7,1.3-1.2c0.3-0.5,0.5-1.1,0.5-1.8c0-0.7-0.2-1.3-0.5-1.8c-0.3-0.5-0.8-0.9-1.3-1.2c-0.6-0.3-1.2-0.4-2-0.4h-2.5v7.1
		H134.8z"/>
	<path id="XMLID_103_" class="st0" d="M141.8,56.6c-0.2-0.2-0.2-0.4-0.2-0.6c0-0.2,0.1-0.4,0.2-0.6c0.2-0.2,0.4-0.2,0.6-0.2
		s0.5,0.1,0.6,0.2c0.2,0.2,0.2,0.4,0.2,0.6c0,0.2-0.1,0.4-0.2,0.6c-0.2,0.2-0.4,0.2-0.6,0.2S142,56.8,141.8,56.6z M141.8,58.2h1.3
		v7.1h-1.3V58.2z"/>
	<path id="XMLID_100_" class="st0" d="M152.4,58.2v6.2c0,1.2-0.3,2.2-0.9,2.8c-0.6,0.6-1.5,0.9-2.8,0.9c-0.7,0-1.3-0.1-1.9-0.3
		c-0.6-0.2-1.1-0.4-1.5-0.8l0.6-1c0.3,0.3,0.7,0.5,1.2,0.7c0.5,0.2,1,0.2,1.5,0.2c0.8,0,1.5-0.2,1.8-0.6c0.4-0.4,0.6-1,0.6-1.8v-0.6
		c-0.3,0.4-0.7,0.6-1.1,0.8c-0.4,0.2-0.9,0.3-1.4,0.3c-0.7,0-1.3-0.1-1.8-0.4c-0.6-0.3-1-0.7-1.3-1.2c-0.3-0.5-0.5-1.1-0.5-1.8
		c0-0.7,0.2-1.3,0.5-1.8c0.3-0.5,0.7-0.9,1.3-1.2c0.6-0.3,1.2-0.4,1.8-0.4c0.5,0,1,0.1,1.5,0.3c0.5,0.2,0.8,0.5,1.1,0.9v-1.1H152.4z
		 M149.9,63.6c0.4-0.2,0.7-0.5,0.9-0.8s0.3-0.8,0.3-1.2c0-0.7-0.2-1.2-0.7-1.7c-0.5-0.4-1-0.6-1.8-0.6c-0.7,0-1.3,0.2-1.8,0.6
		c-0.5,0.4-0.7,1-0.7,1.7c0,0.4,0.1,0.8,0.3,1.2c0.2,0.4,0.5,0.6,0.9,0.8c0.4,0.2,0.8,0.3,1.3,0.3C149.1,63.9,149.5,63.8,149.9,63.6
		z"/>
	<path id="XMLID_97_" class="st0" d="M154.9,56.6c-0.2-0.2-0.2-0.4-0.2-0.6c0-0.2,0.1-0.4,0.2-0.6c0.2-0.2,0.4-0.2,0.6-0.2
		s0.5,0.1,0.6,0.2c0.2,0.2,0.2,0.4,0.2,0.6c0,0.2-0.1,0.4-0.2,0.6c-0.2,0.2-0.4,0.2-0.6,0.2S155,56.8,154.9,56.6z M154.8,58.2h1.3
		v7.1h-1.3V58.2z"/>
	<path id="XMLID_95_" class="st0" d="M162.6,64.9c-0.2,0.2-0.4,0.3-0.7,0.4c-0.3,0.1-0.6,0.1-0.9,0.1c-0.7,0-1.3-0.2-1.7-0.6
		s-0.6-0.9-0.6-1.7v-3.9h-1.2v-1.1h1.2v-1.6h1.3v1.6h2v1.1h-2v3.9c0,0.4,0.1,0.7,0.3,0.9c0.2,0.2,0.5,0.3,0.8,0.3
		c0.4,0,0.7-0.1,1-0.3L162.6,64.9z"/>
	<path id="XMLID_92_" class="st0" d="M169,58.9c0.5,0.5,0.8,1.2,0.8,2.2v4.3h-1.2v-0.9c-0.2,0.3-0.5,0.6-0.9,0.8
		c-0.4,0.2-0.9,0.3-1.4,0.3c-0.8,0-1.4-0.2-1.9-0.6c-0.5-0.4-0.7-0.9-0.7-1.5c0-0.6,0.2-1.1,0.7-1.5c0.5-0.4,1.2-0.6,2.2-0.6h2V61
		c0-0.6-0.2-1-0.5-1.3c-0.3-0.3-0.8-0.4-1.4-0.4c-0.4,0-0.8,0.1-1.2,0.2c-0.4,0.1-0.7,0.3-1,0.6l-0.5-1c0.4-0.3,0.8-0.5,1.3-0.7
		c0.5-0.2,1.1-0.2,1.6-0.2C167.7,58.2,168.5,58.4,169,58.9z M167.7,64.1c0.4-0.2,0.6-0.5,0.8-0.9v-1h-2c-1.1,0-1.6,0.4-1.6,1.1
		c0,0.4,0.1,0.6,0.4,0.8c0.3,0.2,0.7,0.3,1.2,0.3S167.4,64.3,167.7,64.1z"/>
	<path id="XMLID_90_" class="st0" d="M172.2,55.4h1.3v10h-1.3V55.4z"/>
	<path id="XMLID_88_" class="st0" d="M176.8,65.1c-0.7-0.2-1.2-0.5-1.6-0.9l0.5-1c0.4,0.3,0.8,0.6,1.4,0.8c0.6,0.2,1.1,0.3,1.7,0.3
		c0.8,0,1.4-0.1,1.7-0.4c0.4-0.3,0.6-0.6,0.6-1.1c0-0.3-0.1-0.6-0.3-0.8c-0.2-0.2-0.5-0.4-0.8-0.5c-0.3-0.1-0.7-0.2-1.3-0.4
		c-0.7-0.2-1.3-0.3-1.7-0.5c-0.4-0.2-0.8-0.4-1.1-0.8c-0.3-0.4-0.5-0.8-0.5-1.4c0-0.5,0.1-1,0.4-1.4c0.3-0.4,0.7-0.7,1.2-1
		c0.5-0.2,1.2-0.4,2-0.4c0.6,0,1.1,0.1,1.6,0.2c0.5,0.1,1,0.3,1.4,0.6l-0.4,1.1c-0.4-0.3-0.8-0.4-1.3-0.6c-0.4-0.1-0.9-0.2-1.3-0.2
		c-0.8,0-1.3,0.1-1.7,0.4c-0.4,0.3-0.6,0.6-0.6,1.1c0,0.3,0.1,0.6,0.3,0.8c0.2,0.2,0.5,0.4,0.8,0.5c0.3,0.1,0.8,0.2,1.3,0.4
		c0.7,0.2,1.3,0.3,1.7,0.5c0.4,0.2,0.8,0.4,1.1,0.8c0.3,0.3,0.5,0.8,0.5,1.4c0,0.5-0.1,0.9-0.4,1.4c-0.3,0.4-0.7,0.7-1.2,1
		c-0.5,0.2-1.2,0.4-2,0.4C178.2,65.5,177.5,65.3,176.8,65.1z"/>
	<path id="XMLID_86_" class="st0" d="M190.9,58.2v7.1h-1.2v-1.1c-0.3,0.4-0.6,0.7-1,0.9c-0.4,0.2-0.9,0.3-1.4,0.3
		c-1,0-1.7-0.3-2.2-0.8c-0.5-0.5-0.8-1.3-0.8-2.3v-4.1h1.3v4c0,0.7,0.2,1.2,0.5,1.6c0.3,0.4,0.8,0.5,1.4,0.5c0.7,0,1.2-0.2,1.6-0.6
		c0.4-0.4,0.6-1,0.6-1.7v-3.7H190.9z"/>
	<path id="XMLID_84_" class="st0" d="M194.6,65c-0.6-0.3-1-0.7-1.3-1.3c-0.3-0.6-0.5-1.2-0.5-1.9c0-0.7,0.2-1.3,0.5-1.9
		c0.3-0.6,0.8-1,1.3-1.3c0.6-0.3,1.2-0.5,1.9-0.5c0.6,0,1.2,0.1,1.7,0.4c0.5,0.3,0.9,0.6,1.2,1.1l-1,0.6c-0.2-0.3-0.5-0.6-0.8-0.8
		c-0.3-0.2-0.7-0.3-1.1-0.3c-0.5,0-0.9,0.1-1.3,0.3c-0.4,0.2-0.7,0.5-0.9,0.9c-0.2,0.4-0.3,0.8-0.3,1.3c0,0.5,0.1,0.9,0.3,1.3
		c0.2,0.4,0.5,0.7,0.9,0.9c0.4,0.2,0.8,0.3,1.3,0.3c0.4,0,0.8-0.1,1.1-0.3c0.3-0.2,0.6-0.4,0.8-0.8l1,0.6c-0.3,0.5-0.7,0.9-1.2,1.1
		c-0.5,0.3-1.1,0.4-1.7,0.4C195.8,65.4,195.1,65.3,194.6,65z"/>
	<path id="XMLID_82_" class="st0" d="M202.1,65c-0.6-0.3-1-0.7-1.3-1.3c-0.3-0.6-0.5-1.2-0.5-1.9c0-0.7,0.2-1.3,0.5-1.9
		c0.3-0.6,0.8-1,1.3-1.3c0.6-0.3,1.2-0.5,1.9-0.5c0.6,0,1.2,0.1,1.7,0.4c0.5,0.3,0.9,0.6,1.2,1.1l-1,0.6c-0.2-0.3-0.5-0.6-0.8-0.8
		c-0.3-0.2-0.7-0.3-1.1-0.3c-0.5,0-0.9,0.1-1.3,0.3c-0.4,0.2-0.7,0.5-0.9,0.9c-0.2,0.4-0.3,0.8-0.3,1.3c0,0.5,0.1,0.9,0.3,1.3
		c0.2,0.4,0.5,0.7,0.9,0.9c0.4,0.2,0.8,0.3,1.3,0.3c0.4,0,0.8-0.1,1.1-0.3c0.3-0.2,0.6-0.4,0.8-0.8l1,0.6c-0.3,0.5-0.7,0.9-1.2,1.1
		c-0.5,0.3-1.1,0.4-1.7,0.4C203.3,65.4,202.7,65.3,202.1,65z"/>
	<path id="XMLID_79_" class="st0" d="M215,62.2h-5.8c0.1,0.6,0.4,1.1,0.8,1.5c0.5,0.4,1.1,0.6,1.8,0.6c0.9,0,1.5-0.3,2.1-0.9
		l0.7,0.8c-0.3,0.4-0.7,0.7-1.2,0.9c-0.5,0.2-1,0.3-1.6,0.3c-0.8,0-1.4-0.2-2-0.5c-0.6-0.3-1-0.7-1.4-1.3c-0.3-0.6-0.5-1.2-0.5-1.9
		c0-0.7,0.2-1.3,0.5-1.9s0.7-1,1.3-1.3c0.5-0.3,1.2-0.5,1.8-0.5c0.7,0,1.3,0.2,1.8,0.5c0.5,0.3,1,0.7,1.3,1.3s0.5,1.2,0.5,1.9
		C215,61.9,215,62.1,215,62.2z M209.9,59.8c-0.4,0.4-0.7,0.9-0.7,1.5h4.6c-0.1-0.6-0.3-1.1-0.7-1.5c-0.4-0.4-0.9-0.6-1.6-0.6
		C210.8,59.2,210.3,59.4,209.9,59.8z"/>
	<path id="XMLID_77_" class="st0" d="M217.1,65.2c-0.5-0.2-1-0.4-1.3-0.6l0.5-1c0.3,0.2,0.7,0.4,1.1,0.5c0.4,0.1,0.9,0.2,1.4,0.2
		c1.1,0,1.7-0.3,1.7-1c0-0.2-0.1-0.4-0.2-0.5c-0.2-0.1-0.3-0.2-0.6-0.3c-0.2-0.1-0.6-0.1-1-0.2c-0.6-0.1-1-0.2-1.4-0.3
		c-0.4-0.1-0.7-0.3-0.9-0.6c-0.3-0.3-0.4-0.7-0.4-1.2c0-0.6,0.3-1.2,0.8-1.6c0.5-0.4,1.3-0.6,2.2-0.6c0.5,0,1,0.1,1.4,0.2
		c0.5,0.1,0.9,0.3,1.2,0.5l-0.6,1c-0.6-0.4-1.3-0.6-2.1-0.6c-0.5,0-1,0.1-1.3,0.3c-0.3,0.2-0.4,0.4-0.4,0.7c0,0.2,0.1,0.4,0.2,0.6
		c0.2,0.1,0.4,0.2,0.6,0.3c0.2,0.1,0.6,0.1,1,0.2c0.6,0.1,1,0.2,1.4,0.3c0.4,0.1,0.7,0.3,0.9,0.6c0.3,0.3,0.4,0.6,0.4,1.1
		c0,0.6-0.3,1.2-0.8,1.5c-0.6,0.4-1.3,0.6-2.3,0.6C218.2,65.4,217.7,65.3,217.1,65.2z"/>
	<path id="XMLID_75_" class="st0" d="M223.9,65.2c-0.5-0.2-1-0.4-1.3-0.6l0.5-1c0.3,0.2,0.7,0.4,1.1,0.5c0.4,0.1,0.9,0.2,1.4,0.2
		c1.1,0,1.7-0.3,1.7-1c0-0.2-0.1-0.4-0.2-0.5c-0.2-0.1-0.3-0.2-0.6-0.3c-0.2-0.1-0.6-0.1-1-0.2c-0.6-0.1-1-0.2-1.4-0.3
		c-0.4-0.1-0.7-0.3-0.9-0.6c-0.3-0.3-0.4-0.7-0.4-1.2c0-0.6,0.3-1.2,0.8-1.6c0.5-0.4,1.3-0.6,2.2-0.6c0.5,0,1,0.1,1.4,0.2
		c0.5,0.1,0.9,0.3,1.2,0.5l-0.6,1c-0.6-0.4-1.3-0.6-2.1-0.6c-0.5,0-1,0.1-1.3,0.3c-0.3,0.2-0.4,0.4-0.4,0.7c0,0.2,0.1,0.4,0.2,0.6
		c0.2,0.1,0.4,0.2,0.6,0.3c0.2,0.1,0.6,0.1,1,0.2c0.6,0.1,1,0.2,1.4,0.3c0.4,0.1,0.7,0.3,0.9,0.6c0.3,0.3,0.4,0.6,0.4,1.1
		c0,0.6-0.3,1.2-0.8,1.5c-0.6,0.4-1.3,0.6-2.3,0.6C225,65.4,224.4,65.3,223.9,65.2z"/>
</g>
<path id="XMLID_151_" class="st0" d="M52.2,1.1c-28.4,0-51.4,23-51.4,51.4s23,51.4,51.4,51.4s51.4-23,51.4-51.4S80.6,1.1,52.2,1.1z
	 M29.6,64.9h-6V39.2h6V64.9z M57.1,64.9h-4.9L39.4,49.3v15.6h-5.9V39.2h4.9l12.7,15.6V39.2h5.9V64.9z M74,64.9h-5.2V44.3h-7.2v-4.8
	h19.7v4.8H74V64.9z M79.9,65.1c-1.5,0-2.7-1.2-2.7-2.7c0-1.5,1.2-2.7,2.7-2.7c1.5,0,2.7,1.2,2.7,2.7C82.5,64,81.3,65.1,79.9,65.1z"
	/>
</svg>
