<?xml version="1.0" encoding="utf-8"?>
<!-- Generator: Adobe Illustrator 19.0.0, SVG Export Plug-In . SVG Version: 6.00 Build 0)  -->
<svg version="1.1" id="Layer_1" xmlns="http://www.w3.org/2000/svg" xmlns:xlink="http://www.w3.org/1999/xlink" x="0px" y="0px"
	 viewBox="0 0 530.7 240" style="enable-background:new 0 0 530.7 240;" xml:space="preserve">
<style type="text/css">
	.st0{fill:#1A509E;}
	.st1{fill:#FFFFFF;}
	.st2{fill:#2A2D30;}
</style>
<g id="Layer_2">
	<circle id="XMLID_2_" class="st0" cx="119.8" cy="119.8" r="119.8"/>
	<g id="XMLID_7_">
		<path id="XMLID_165_" class="st1" d="M53.4,88.7h13.9v60H53.4V88.7z"/>
	</g>
	<g id="XMLID_3_">
		<path id="XMLID_167_" class="st1" d="M131.2,88.7v60h-11.4l-29.7-36.4v36.4H76.4v-60h11.4l29.7,36.4V88.7H131.2z"/>
	</g>
	<g id="XMLID_5_">
		<path id="XMLID_169_" class="st1" d="M158.5,100.6h-16.8V89.5h45.8v11.2h-16.8v48h-12.2V100.6z"/>
	</g>
	<circle id="XMLID_4_" class="st1" cx="184.2" cy="142.9" r="6.2"/>
	<g id="XMLID_104_">
		<path id="XMLID_105_" class="st2" d="M312,90.1l-7.3,22h-3.3l-6-17.5l-6,17.5h-3.4l-7.3-22h3.2l5.9,17.8l6.2-17.8h2.9l6,18l6-18
			C309,90.1,312,90.1,312,90.1z"/>
		<path id="XMLID_107_" class="st2" d="M329.2,104.6h-13.5c0.2,1.4,0.8,2.6,1.9,3.5c1.1,0.9,2.5,1.3,4.1,1.3c2,0,3.5-0.7,4.8-2
			l1.6,2c-0.7,0.8-1.6,1.5-2.8,2c-1.2,0.5-2.3,0.7-3.8,0.7c-1.8,0-3.3-0.4-4.7-1.1c-1.4-0.7-2.3-1.8-3.2-3.1
			c-0.7-1.3-1.1-2.7-1.1-4.3c0-1.6,0.4-3.1,1.1-4.3c0.7-1.3,1.8-2.3,2.9-3.1c1.3-0.7,2.7-1.1,4.2-1.1c1.6,0,3.1,0.4,4.2,1.1
			c1.3,0.7,2.2,1.8,2.9,3.1c0.7,1.3,1.1,2.8,1.1,4.5C329.2,104,329.2,104.3,329.2,104.6z M317.4,99.1c-0.9,0.8-1.5,2-1.8,3.4h10.7
			c-0.1-1.4-0.7-2.6-1.8-3.4c-0.9-0.9-2.2-1.3-3.6-1.3C319.5,97.7,318.4,98.2,317.4,99.1z"/>
		<path id="XMLID_110_" class="st2" d="M342.2,90.1h9.3c2.3,0,4.3,0.5,6.2,1.4c1.8,0.9,3.2,2.2,4.2,3.9c0.9,1.6,1.5,3.5,1.5,5.8
			c0,2.1-0.5,4.1-1.5,5.8c-0.9,1.6-2.3,2.9-4.2,3.9c-1.9,0.9-3.9,1.2-6.2,1.2h-9.3V90.1z M351.2,109.2c1.8,0,3.3-0.4,4.7-1.1
			c1.3-0.7,2.3-1.6,3.2-2.9c0.7-1.3,1.1-2.7,1.1-4.3c0-1.6-0.4-3.1-1.1-4.3c-0.7-1.3-1.8-2.2-3.2-2.9c-1.3-0.7-2.9-1.1-4.7-1.1h-5.9
			V109h5.9V109.2z"/>
		<path id="XMLID_113_" class="st2" d="M382.6,104.6h-13.5c0.2,1.4,0.8,2.6,1.9,3.5c1.1,0.9,2.5,1.3,4.1,1.3c2,0,3.5-0.7,4.8-2
			l1.6,2c-0.7,0.8-1.6,1.5-2.8,2c-1.2,0.5-2.3,0.7-3.8,0.7c-1.8,0-3.3-0.4-4.7-1.1c-1.4-0.7-2.3-1.8-3.2-3.1
			c-0.7-1.3-1.1-2.7-1.1-4.3c0-1.6,0.4-3.1,1.1-4.3c0.7-1.3,1.8-2.3,2.9-3.1c1.3-0.7,2.7-1.1,4.2-1.1c1.6,0,3.1,0.4,4.2,1.1
			c1.3,0.7,2.2,1.8,2.9,3.1c0.7,1.3,1.1,2.8,1.1,4.5C382.7,104,382.6,104.3,382.6,104.6z M370.8,99.1c-0.9,0.8-1.5,2-1.8,3.4h10.7
			c-0.1-1.4-0.7-2.6-1.8-3.4c-0.9-0.9-2.2-1.3-3.6-1.3C373,97.7,371.8,98.2,370.8,99.1z"/>
		<path id="XMLID_116_" class="st2" d="M386.8,88.8h3.1v23.1h-3.1V88.8z"/>
		<path id="XMLID_118_" class="st2" d="M395.6,91.6c-0.4-0.4-0.6-0.8-0.6-1.4s0.2-1.1,0.6-1.4c0.4-0.4,0.8-0.6,1.4-0.6
			s1.1,0.2,1.4,0.6c0.4,0.4,0.6,0.8,0.6,1.4s-0.2,1.1-0.6,1.4c-0.4,0.4-0.8,0.6-1.4,0.6S396,91.9,395.6,91.6z M395.5,95.4h3.1v16.6
			h-3.1V95.4z"/>
		<path id="XMLID_121_" class="st2" d="M419,95.4l-7.3,16.6h-3.1l-7.3-16.6h3.2l5.8,13.3l5.9-13.3H419z"/>
		<path id="XMLID_123_" class="st2" d="M436.3,104.6h-13.5c0.2,1.4,0.8,2.6,1.9,3.5s2.5,1.3,4.1,1.3c2,0,3.5-0.7,4.8-2l1.6,2
			c-0.7,0.8-1.6,1.5-2.8,2c-1.2,0.5-2.3,0.7-3.8,0.7c-1.8,0-3.3-0.4-4.7-1.1c-1.4-0.7-2.3-1.8-3.2-3.1c-0.7-1.3-1.1-2.7-1.1-4.3
			c0-1.6,0.4-3.1,1.1-4.3c0.7-1.3,1.8-2.3,2.9-3.1c1.3-0.7,2.7-1.1,4.2-1.1c1.6,0,3.1,0.4,4.2,1.1c1.3,0.7,2.2,1.8,2.9,3.1
			c0.7,1.3,1.1,2.8,1.1,4.5C436.4,104,436.3,104.3,436.3,104.6z M424.5,99.1c-0.9,0.8-1.5,2-1.8,3.4h10.7c-0.1-1.4-0.7-2.6-1.8-3.4
			c-0.9-0.9-2.2-1.3-3.6-1.3C426.7,97.7,425.4,98.2,424.5,99.1z"/>
		<path id="XMLID_126_" class="st2" d="M445.6,95.9c1.1-0.5,2.2-0.7,3.8-0.7v2.9c-0.1,0-0.4,0-0.7,0c-1.6,0-2.9,0.5-3.9,1.4
			s-1.4,2.3-1.4,4.1v8.2h-3.1V95.4h2.9v2.8C443.9,97.2,444.7,96.4,445.6,95.9z"/>
		<path id="XMLID_128_" class="st2" d="M294.4,135.5l-0.7,6.1h4.3v2.2h-4.6l-0.7,5.6h-2.3l0.7-5.6h-5.9l-0.7,5.6h-2.2l0.7-5.6h-4.3
			v-2.2h4.6l0.8-6.1h-4.3v-2.2h4.7l0.7-5.6h2.2l-0.7,5.6h5.9l0.7-5.6h2.2l-0.7,5.6h4.3v2.2H294.4z M292.2,135.5h-5.9l-0.8,6.1h5.9
			L292.2,135.5z"/>
		<path id="XMLID_131_" class="st2" d="M303.1,127.6h9.3c2.3,0,4.3,0.5,6.2,1.4c1.9,0.9,3.2,2.2,4.2,3.9c0.9,1.6,1.5,3.5,1.5,5.8
			s-0.5,4.1-1.5,5.8c-0.9,1.6-2.3,2.9-4.2,3.9c-1.8,0.9-3.9,1.4-6.2,1.4h-9.3V127.6z M312.1,146.8c1.8,0,3.3-0.4,4.7-1.1
			c1.4-0.7,2.3-1.6,3.2-2.9c0.8-1.3,1.1-2.7,1.1-4.3s-0.4-3.1-1.1-4.3s-1.8-2.2-3.2-2.9c-1.4-0.7-2.9-1.1-4.7-1.1h-5.9v16.4h5.9
			V146.8z"/>
		<path id="XMLID_134_" class="st2" d="M328.6,129.2c-0.4-0.4-0.6-0.8-0.6-1.4c0-0.6,0.2-1.1,0.6-1.4c0.4-0.4,0.8-0.6,1.4-0.6
			c0.6,0,1.1,0.2,1.4,0.6s0.6,0.8,0.6,1.4c0,0.6-0.2,1.1-0.6,1.4c-0.4,0.4-0.8,0.6-1.4,0.6C329.4,129.8,328.9,129.5,328.6,129.2z
			 M328.6,132.9h3.1v16.6h-3.1V132.9z"/>
		<path id="XMLID_137_" class="st2" d="M353.1,132.9v14.3c0,2.9-0.7,5-2.1,6.5c-1.4,1.4-3.6,2.1-6.5,2.1c-1.5,0-3.1-0.2-4.5-0.6
			c-1.4-0.5-2.6-1.1-3.4-1.9l1.4-2.3c0.8,0.7,1.8,1.2,2.8,1.5c1.2,0.4,2.3,0.6,3.5,0.6c2,0,3.4-0.5,4.3-1.4c0.9-0.9,1.4-2.3,1.4-4.2
			v-1.3c-0.7,0.8-1.5,1.5-2.6,1.9c-1.1,0.5-2.1,0.6-3.4,0.6c-1.6,0-3.1-0.4-4.3-1.1c-1.3-0.7-2.3-1.6-3.1-2.8s-1.1-2.6-1.1-4.2
			c0-1.5,0.4-2.9,1.1-4.2c0.7-1.2,1.8-2.1,3.1-2.8c1.3-0.7,2.7-1.1,4.3-1.1c1.3,0,2.5,0.2,3.5,0.7c1.1,0.5,2,1.2,2.7,2v-2.6h2.7
			V132.9z M347.5,145.5c0.8-0.5,1.5-1.1,2-1.9c0.5-0.8,0.7-1.8,0.7-2.8c0-1.6-0.6-2.9-1.6-3.9c-1.1-0.9-2.5-1.5-4.1-1.5
			s-3.1,0.5-4.1,1.5c-1.1,0.9-1.6,2.3-1.6,3.9c0,1.1,0.2,2,0.7,2.8c0.5,0.8,1.2,1.4,2,1.9c0.8,0.5,1.9,0.7,2.9,0.7
			C345.6,146.2,346.5,146,347.5,145.5z"/>
		<path id="XMLID_140_" class="st2" d="M359,129.2c-0.4-0.4-0.6-0.8-0.6-1.4c0-0.6,0.2-1.1,0.6-1.4c0.4-0.4,0.8-0.6,1.4-0.6
			s1.1,0.2,1.4,0.6c0.4,0.4,0.6,0.8,0.6,1.4c0,0.6-0.2,1.1-0.6,1.4c-0.4,0.4-0.8,0.6-1.4,0.6S359.3,129.5,359,129.2z M358.9,132.9
			h3.1v16.6h-3.1V132.9z"/>
		<path id="XMLID_143_" class="st2" d="M377,148.5c-0.5,0.4-0.9,0.7-1.6,0.8c-0.7,0.2-1.3,0.4-2,0.4c-1.6,0-2.9-0.5-3.9-1.3
			c-0.9-0.8-1.4-2.2-1.4-3.9v-9.2h-2.8v-2.5h2.8v-3.6h3.1v3.6h4.8v2.5h-4.8v9c0,0.9,0.2,1.6,0.7,2.1c0.5,0.5,1.1,0.7,1.9,0.7
			c0.9,0,1.6-0.2,2.3-0.8L377,148.5z"/>
		<path id="XMLID_145_" class="st2" d="M391.9,134.5c1.2,1.2,1.9,2.8,1.9,5v10h-2.8v-2.2c-0.5,0.8-1.2,1.4-2.1,1.8
			c-0.9,0.4-2,0.6-3.3,0.6c-1.9,0-3.3-0.5-4.5-1.3c-1.2-0.9-1.6-2.1-1.6-3.5c0-1.4,0.6-2.6,1.6-3.5c1.1-0.9,2.7-1.3,5-1.3h4.8v-0.6
			c0-1.3-0.4-2.2-1.2-2.9c-0.7-0.7-1.9-1.1-3.3-1.1c-0.9,0-2,0.1-2.9,0.5s-1.8,0.7-2.3,1.3l-1.3-2.2c0.8-0.7,1.9-1.2,3.1-1.5
			c1.2-0.4,2.5-0.6,3.8-0.6C388.9,132.8,390.7,133.4,391.9,134.5z M388.9,146.7c0.8-0.5,1.4-1.3,1.8-2.2v-2.3h-4.6
			c-2.6,0-3.9,0.8-3.9,2.6c0,0.8,0.4,1.5,0.9,2c0.7,0.5,1.5,0.7,2.7,0.7C387,147.4,388.1,147.1,388.9,146.7z"/>
		<path id="XMLID_148_" class="st2" d="M399.3,126.4h3.1v23.1h-3.1V126.4z"/>
		<path id="XMLID_150_" class="st2" d="M410.1,149c-1.5-0.5-2.7-1.2-3.6-2l1.2-2.5c0.8,0.7,1.9,1.4,3.2,1.9c1.3,0.5,2.7,0.7,4,0.7
			c1.8,0,3.2-0.4,4.1-0.9c0.9-0.6,1.3-1.4,1.3-2.5c0-0.7-0.2-1.4-0.7-1.9c-0.5-0.5-1.1-0.8-1.8-1.1c-0.7-0.2-1.8-0.6-3.1-0.8
			c-1.6-0.4-2.9-0.8-4-1.2c-1.1-0.4-1.9-1.1-2.6-1.9s-1.1-1.9-1.1-3.3c0-1.2,0.4-2.2,0.9-3.2c0.6-0.9,1.5-1.6,2.8-2.2
			c1.3-0.6,2.8-0.8,4.7-0.8c1.3,0,2.6,0.1,3.9,0.5c1.3,0.4,2.3,0.8,3.2,1.4l-1.1,2.5c-0.9-0.6-1.9-1.1-2.9-1.3
			c-1.1-0.4-2.1-0.5-3.1-0.5c-1.8,0-3.1,0.4-4,0.9c-0.9,0.7-1.3,1.5-1.3,2.5c0,0.7,0.2,1.4,0.7,1.9c0.5,0.5,1.2,0.8,1.9,1.1
			s1.8,0.6,3.1,0.8c1.6,0.4,2.9,0.8,4,1.2c1.1,0.4,1.9,1.1,2.6,1.8c0.7,0.8,1.1,1.9,1.1,3.3c0,1.2-0.4,2.2-0.9,3.2
			c-0.6,0.9-1.5,1.8-2.8,2.2c-1.3,0.5-2.8,0.8-4.7,0.8C413.2,149.8,411.6,149.5,410.1,149z"/>
		<path id="XMLID_152_" class="st2" d="M442.9,132.9v16.6h-2.8V147c-0.6,0.8-1.4,1.5-2.3,2s-2.1,0.7-3.3,0.7c-2.2,0-4-0.6-5.3-1.9
			c-1.3-1.2-1.9-3.1-1.9-5.4v-9.5h3.1v9.2c0,1.6,0.4,2.8,1.2,3.6c0.8,0.8,1.9,1.3,3.3,1.3c1.6,0,2.8-0.5,3.8-1.4
			c0.9-0.9,1.4-2.3,1.4-4.1v-8.6C440,132.9,442.9,132.9,442.9,132.9z"/>
		<path id="XMLID_154_" class="st2" d="M451.4,148.7c-1.3-0.7-2.3-1.8-3.2-3.1c-0.7-1.3-1.2-2.7-1.2-4.3s0.4-3.1,1.2-4.3
			c0.7-1.3,1.8-2.2,3.2-3.1c1.3-0.7,2.8-1.1,4.6-1.1c1.5,0,2.8,0.4,4,0.9c1.2,0.6,2.1,1.5,2.7,2.6l-2.2,1.5c-0.5-0.8-1.2-1.4-2-1.8
			s-1.6-0.6-2.6-0.6c-1.1,0-2.1,0.2-2.9,0.7s-1.5,1.2-2,2c-0.5,0.9-0.7,1.9-0.7,3.1s0.2,2.2,0.7,3.1c0.5,0.9,1.2,1.5,2,2
			s1.9,0.7,2.9,0.7c0.9,0,1.8-0.2,2.6-0.6s1.4-0.9,2-1.8l2.2,1.4c-0.7,1.2-1.5,2-2.7,2.7c-1.2,0.6-2.5,0.9-4,0.9
			C454.2,149.7,452.7,149.4,451.4,148.7z"/>
		<path id="XMLID_156_" class="st2" d="M469,148.7c-1.3-0.7-2.3-1.8-3.2-3.1c-0.7-1.3-1.2-2.7-1.2-4.3s0.4-3.1,1.2-4.3
			c0.7-1.3,1.8-2.2,3.2-3.1c1.3-0.7,2.8-1.1,4.6-1.1c1.5,0,2.8,0.4,4,0.9c1.2,0.6,2.1,1.5,2.7,2.6l-2.2,1.5c-0.5-0.8-1.2-1.4-2-1.8
			c-0.8-0.4-1.6-0.6-2.6-0.6c-1.1,0-2.1,0.2-2.9,0.7c-0.8,0.5-1.5,1.2-2,2c-0.5,0.9-0.7,1.9-0.7,3.1s0.2,2.2,0.7,3.1
			c0.5,0.9,1.2,1.5,2,2c0.8,0.5,1.9,0.7,2.9,0.7c0.9,0,1.8-0.2,2.6-0.6c0.8-0.4,1.4-0.9,2-1.8l2.2,1.4c-0.7,1.2-1.5,2-2.7,2.7
			c-1.2,0.6-2.5,0.9-4,0.9C471.8,149.7,470.3,149.4,469,148.7z"/>
		<path id="XMLID_158_" class="st2" d="M499,142.2h-13.5c0.2,1.4,0.8,2.6,1.9,3.5c1.1,0.9,2.5,1.3,4.1,1.3c2,0,3.5-0.7,4.8-2l1.6,2
			c-0.7,0.8-1.6,1.5-2.8,2c-1.2,0.5-2.3,0.7-3.8,0.7c-1.8,0-3.3-0.4-4.7-1.1s-2.3-1.8-3.2-3.1c-0.7-1.3-1.1-2.7-1.1-4.3
			c0-1.6,0.4-3.1,1.1-4.3c0.7-1.3,1.8-2.3,2.9-3.1c1.3-0.7,2.7-1.1,4.2-1.1c1.6,0,3.1,0.4,4.2,1.1c1.3,0.7,2.2,1.8,2.9,3.1
			c0.7,1.3,1.1,2.8,1.1,4.5C499,141.6,499,141.9,499,142.2z M487.1,136.7c-0.9,0.8-1.5,2-1.8,3.4H496c-0.1-1.4-0.7-2.6-1.8-3.4
			c-0.9-0.9-2.2-1.3-3.6-1.3C489.3,135.3,488.2,135.7,487.1,136.7z"/>
		<path id="XMLID_161_" class="st2" d="M504,149.1c-1.3-0.4-2.2-0.8-2.9-1.4l1.3-2.3c0.7,0.5,1.6,0.9,2.7,1.3
			c1.1,0.4,2.1,0.5,3.2,0.5c2.6,0,4-0.7,4-2.2c0-0.5-0.2-0.9-0.6-1.2c-0.4-0.2-0.8-0.5-1.3-0.6c-0.6-0.1-1.3-0.2-2.2-0.5
			c-1.3-0.2-2.5-0.5-3.3-0.7c-0.8-0.2-1.5-0.7-2.2-1.4c-0.6-0.7-0.9-1.5-0.9-2.7c0-1.5,0.6-2.7,1.9-3.6c1.3-0.9,2.9-1.4,5-1.4
			c1.1,0,2.2,0.1,3.3,0.4s2,0.6,2.7,1.1l-1.3,2.3c-1.4-0.8-2.9-1.3-4.8-1.3c-1.3,0-2.2,0.2-2.9,0.6s-1.1,0.9-1.1,1.6
			c0,0.6,0.2,0.9,0.6,1.3c0.4,0.4,0.8,0.6,1.4,0.7c0.6,0.1,1.3,0.4,2.3,0.5c1.3,0.2,2.5,0.5,3.3,0.7c0.8,0.2,1.5,0.7,2.1,1.3
			c0.6,0.6,0.8,1.5,0.8,2.6c0,1.5-0.6,2.7-1.9,3.6c-1.3,0.9-3.1,1.3-5.3,1.3C506.5,149.7,505.2,149.5,504,149.1z"/>
		<path id="XMLID_163_" class="st2" d="M519.6,149.1c-1.3-0.4-2.2-0.8-2.9-1.4l1.3-2.3c0.7,0.5,1.6,0.9,2.7,1.3
			c1.1,0.4,2.1,0.5,3.2,0.5c2.6,0,4-0.7,4-2.2c0-0.5-0.2-0.9-0.6-1.2c-0.4-0.2-0.8-0.5-1.3-0.6c-0.6-0.1-1.3-0.2-2.2-0.5
			c-1.3-0.2-2.5-0.5-3.3-0.7c-0.8-0.2-1.5-0.7-2.2-1.4c-0.6-0.7-0.9-1.5-0.9-2.7c0-1.5,0.6-2.7,1.9-3.6c1.3-0.9,2.9-1.4,5-1.4
			c1.1,0,2.2,0.1,3.3,0.4c1.1,0.2,2,0.6,2.7,1.1l-1.3,2.3c-1.4-0.8-2.9-1.3-4.8-1.3c-1.3,0-2.2,0.2-2.9,0.6s-1.1,0.9-1.1,1.6
			c0,0.6,0.2,0.9,0.6,1.3c0.4,0.4,0.8,0.6,1.4,0.7c0.6,0.1,1.3,0.4,2.3,0.5c1.3,0.2,2.5,0.5,3.3,0.7c0.8,0.2,1.5,0.7,2.1,1.3
			c0.6,0.6,0.8,1.5,0.8,2.6c0,1.5-0.6,2.7-1.9,3.6c-1.3,0.9-3.1,1.3-5.3,1.3C522.2,149.7,520.9,149.5,519.6,149.1z"/>
	</g>
</g>
</svg>
